REM DIRINDEX 1
REM DIRNAME folder01
TITLE ""
FILE "34_dokkai_2_q40_44.mp3" MP3
  TRACK 01 AUDIO
    TITLE "0:"
    INDEX 01 00:00:00
  TRACK 02 AUDIO
    TITLE "1:cjc118_1769"
    INDEX 01 00:00:13
  TRACK 03 AUDIO
    TITLE "1:cjc118_1770"
    INDEX 01 00:06:65
  TRACK 04 AUDIO
    TITLE "1:cjc118_1771"
    INDEX 01 00:22:60
  TRACK 05 AUDIO
    TITLE "1:cjc118_1772"
    INDEX 01 00:24:59
  TRACK 06 AUDIO
    TITLE "1:cjc118_1773"
    INDEX 01 00:29:46
  TRACK 07 AUDIO
    TITLE "1:cjc118_1774"
    INDEX 01 00:33:30
  TRACK 08 AUDIO
    TITLE "1:cjc118_1775"
    INDEX 01 00:36:68
  TRACK 09 AUDIO
    TITLE "1:cjc118_1776"
    INDEX 01 00:45:49
  TRACK 10 AUDIO
    TITLE "1:cjc118_1777"
    INDEX 01 00:48:55
  TRACK 11 AUDIO
    TITLE "1:cjc118_1778"
    INDEX 01 00:52:73
  TRACK 12 AUDIO
    TITLE "1:cjc118_1779"
    INDEX 01 00:56:33
  TRACK 13 AUDIO
    TITLE "1:cjc118_1780"
    INDEX 01 01:02:08
  TRACK 14 AUDIO
    TITLE "1:cjc118_1781"
    INDEX 01 01:07:41
  TRACK 15 AUDIO
    TITLE "1:cjc118_1782"
    INDEX 01 01:12:70
  TRACK 16 AUDIO
    TITLE "1:cjc118_1783"
    INDEX 01 01:17:59
  TRACK 17 AUDIO
    TITLE "1:cjc118_1784"
    INDEX 01 01:18:51
  TRACK 18 AUDIO
    TITLE "1:cjc118_1785"
    INDEX 01 01:20:18
  TRACK 19 AUDIO
    TITLE "1:cjc118_1786"
    INDEX 01 01:22:64
  TRACK 20 AUDIO
    TITLE "1:cjc118_1787"
    INDEX 01 01:25:35
  TRACK 21 AUDIO
    TITLE "1:cjc118_1788"
    INDEX 01 01:28:14
  TRACK 22 AUDIO
    TITLE "1:cjc118_1789"
    INDEX 01 01:31:38
  TRACK 23 AUDIO
    TITLE "1:cjc118_1790"
    INDEX 01 01:33:01
  TRACK 24 AUDIO
    TITLE "1:cjc118_1791"
    INDEX 01 01:36:37
  TRACK 25 AUDIO
    TITLE "1:cjc118_1792"
    INDEX 01 01:45:08
  TRACK 26 AUDIO
    TITLE "1:cjc118_1793"
    INDEX 01 01:53:23
  TRACK 27 AUDIO
    TITLE "1:cjc118_1794"
    INDEX 01 02:02:66
  TRACK 28 AUDIO
    TITLE "1:cjc118_1795"
    INDEX 01 02:06:36
  TRACK 29 AUDIO
    TITLE "1:cjc118_1796"
    INDEX 01 02:16:01
  TRACK 30 AUDIO
    TITLE "1:cjc118_1797"
    INDEX 01 02:20:60
  TRACK 31 AUDIO
    TITLE "1:cjc118_1798"
    INDEX 01 02:22:39
  TRACK 32 AUDIO
    TITLE "1:cjc118_1799"
    INDEX 01 02:27:65
  TRACK 33 AUDIO
    TITLE "1:cjc118_1800"
    INDEX 01 02:31:01
  TRACK 34 AUDIO
    TITLE "1:cjc118_1801"
    INDEX 01 02:41:21
  TRACK 35 AUDIO
    TITLE "1:cjc118_1802"
    INDEX 01 02:42:49
  TRACK 36 AUDIO
    TITLE "1:cjc118_1803"
    INDEX 01 02:51:05
  TRACK 37 AUDIO
    TITLE "1:cjc118_1804"
    INDEX 01 02:58:31
  TRACK 38 AUDIO
    TITLE "1:cjc118_1805"
    INDEX 01 03:02:72
  TRACK 39 AUDIO
    TITLE "1:cjc118_1806"
    INDEX 01 03:13:58
  TRACK 40 AUDIO
    TITLE "1:cjc118_1807"
    INDEX 01 03:19:41
  TRACK 41 AUDIO
    TITLE "1:cjc118_1808"
    INDEX 01 03:21:24
  TRACK 42 AUDIO
    TITLE "1:cjc118_1809"
    INDEX 01 03:22:37
  TRACK 43 AUDIO
    TITLE "1:cjc118_1810"
    INDEX 01 03:26:19
  TRACK 44 AUDIO
    TITLE "1:cjc118_1811"
    INDEX 01 03:27:19
  TRACK 45 AUDIO
    TITLE "1:cjc118_1812"
    INDEX 01 03:29:67
  TRACK 46 AUDIO
    TITLE "1:cjc118_1813"
    INDEX 01 03:30:70
  TRACK 47 AUDIO
    TITLE "1:cjc118_1814"
    INDEX 01 03:33:72
  TRACK 48 AUDIO
    TITLE "1:cjc118_1815"
    INDEX 01 03:35:03
  TRACK 49 AUDIO
    TITLE "1:cjc118_1816"
    INDEX 01 03:38:26
  TRACK 50 AUDIO
    TITLE "1:cjc118_1817"
    INDEX 01 03:39:30
  TRACK 51 AUDIO
    TITLE "1:cjc118_1818"
    INDEX 01 03:41:58
  TRACK 52 AUDIO
    TITLE "1:cjc118_1819"
    INDEX 01 03:43:37
  TRACK 53 AUDIO
    TITLE "1:cjc118_1820"
    INDEX 01 03:45:11
  TRACK 54 AUDIO
    TITLE "1:cjc118_1821"
    INDEX 01 03:49:09
  TRACK 55 AUDIO
    TITLE "1:cjc118_1822"
    INDEX 01 03:50:10
  TRACK 56 AUDIO
    TITLE "1:cjc118_1823"
    INDEX 01 03:52:40
  TRACK 57 AUDIO
    TITLE "1:cjc118_1824"
    INDEX 01 03:53:44
  TRACK 58 AUDIO
    TITLE "1:cjc118_1825"
    INDEX 01 03:56:09
  TRACK 59 AUDIO
    TITLE "1:cjc118_1826"
    INDEX 01 03:57:12
  TRACK 60 AUDIO
    TITLE "1:cjc118_1827"
    INDEX 01 03:59:68
  TRACK 61 AUDIO
    TITLE "1:cjc118_1828"
    INDEX 01 04:00:71
  TRACK 62 AUDIO
    TITLE "1:cjc118_1829"
    INDEX 01 04:03:18
  TRACK 63 AUDIO
    TITLE "1:cjc118_1830"
    INDEX 01 04:04:73
  TRACK 64 AUDIO
    TITLE "1:cjc118_1831"
    INDEX 01 04:06:42
  TRACK 65 AUDIO
    TITLE "1:cjc118_1832"
    INDEX 01 04:09:56
  TRACK 66 AUDIO
    TITLE "1:cjc118_1833"
    INDEX 01 04:10:60
  TRACK 67 AUDIO
    TITLE "1:cjc118_1834"
    INDEX 01 04:13:56
  TRACK 68 AUDIO
    TITLE "1:cjc118_1835"
    INDEX 01 04:14:63
  TRACK 69 AUDIO
    TITLE "1:cjc118_1836"
    INDEX 01 04:17:26
  TRACK 70 AUDIO
    TITLE "1:cjc118_1837"
    INDEX 01 04:18:34
  TRACK 71 AUDIO
    TITLE "1:cjc118_1838"
    INDEX 01 04:21:30
  TRACK 72 AUDIO
    TITLE "1:cjc118_1839"
    INDEX 01 04:22:37
  TRACK 73 AUDIO
    TITLE "1:cjc118_1840"
    INDEX 01 04:24:52
  TRACK 74 AUDIO
    TITLE "1:cjc118_1841"
    INDEX 01 04:26:37
  TRACK 75 AUDIO
    TITLE "1:cjc118_1842"
    INDEX 01 04:28:01
  TRACK 76 AUDIO
    TITLE "1:cjc118_1843"
    INDEX 01 04:31:58
  TRACK 77 AUDIO
    TITLE "1:cjc118_1844"
    INDEX 01 04:32:57
  TRACK 78 AUDIO
    TITLE "1:cjc118_1845"
    INDEX 01 04:34:41
  TRACK 79 AUDIO
    TITLE "1:cjc118_1846"
    INDEX 01 04:35:48
  TRACK 80 AUDIO
    TITLE "1:cjc118_1847"
    INDEX 01 04:37:29
  TRACK 81 AUDIO
    TITLE "1:cjc118_1848"
    INDEX 01 04:38:34
  TRACK 82 AUDIO
    TITLE "1:cjc118_1849"
    INDEX 01 04:40:29
  TRACK 83 AUDIO
    TITLE "1:cjc118_1850"
    INDEX 01 04:41:37
  TRACK 84 AUDIO
    TITLE "1:cjc118_1851"
    INDEX 01 04:43:06
  TRACK 85 AUDIO
    TITLE "1:cjc118_1852"
    INDEX 01 04:44:60
  TRACK 86 AUDIO
    TITLE "1:cjc118_1853"
    INDEX 01 04:46:28
  TRACK 87 AUDIO
    TITLE "1:cjc118_1854"
    INDEX 01 04:50:04
  TRACK 88 AUDIO
    TITLE "1:cjc118_1855"
    INDEX 01 04:51:04
  TRACK 89 AUDIO
    TITLE "1:cjc118_1856"
    INDEX 01 04:53:54
  TRACK 90 AUDIO
    TITLE "1:cjc118_1857"
    INDEX 01 04:54:57
  TRACK 91 AUDIO
    TITLE "1:cjc118_1858"
    INDEX 01 04:57:45
  TRACK 92 AUDIO
    TITLE "1:cjc118_1859"
    INDEX 01 04:58:49
  TRACK 93 AUDIO
    TITLE "1:cjc118_1860"
    INDEX 01 05:01:57
  TRACK 94 AUDIO
    TITLE "1:cjc118_1861"
    INDEX 01 05:02:62
  TRACK 95 AUDIO
    TITLE "0:"
    INDEX 01 05:05:51
